<svg xmlns="http://www.w3.org/2000/svg">


<symbol id="search" viewBox="0 0 56.531 56.53" >
 <path id="_" data-name="" class="cls-1" d="M548.266,1673.81l-2.954,2.96L529,1660.45a18,18,0,0,1-3.094,2.25,24.059,24.059,0,0,1-3.515,1.69,20.8,20.8,0,0,1-3.868,1.06,24.021,24.021,0,0,1-4.007.35,21.867,21.867,0,0,1-8.93-1.83,23.622,23.622,0,0,1-7.242-4.92,22.523,22.523,0,0,1-4.852-7.25,22.224,22.224,0,0,1-1.758-8.78,22.6,22.6,0,0,1,22.782-22.79,22.337,22.337,0,0,1,8.789,1.76,22.794,22.794,0,0,1,7.242,4.85,23.707,23.707,0,0,1,4.922,7.25,21.9,21.9,0,0,1,1.828,8.93,23.551,23.551,0,0,1-.352,4,20.544,20.544,0,0,1-1.054,3.87,24.84,24.84,0,0,1-1.688,3.52,18.988,18.988,0,0,1-2.25,3.09l16.313,16.31h0Zm-54.141-30.79a19.963,19.963,0,0,0,1.547,7.87,20.187,20.187,0,0,0,4.359,6.47,20.879,20.879,0,0,0,6.539,4.43,19.709,19.709,0,0,0,7.946,1.62,19.226,19.226,0,0,0,7.875-1.62,21.318,21.318,0,0,0,10.9-10.9,19.26,19.26,0,0,0,1.617-7.87,19.776,19.776,0,0,0-1.617-7.95,21.078,21.078,0,0,0-4.43-6.54,20.279,20.279,0,0,0-6.468-4.36,20.032,20.032,0,0,0-7.875-1.55,20.538,20.538,0,0,0-7.946,1.55,20.036,20.036,0,0,0-10.9,10.9,20.5,20.5,0,0,0-1.547,7.95h0Z" transform="translate(-491.719 -1620.22)"/>
</symbol>

<symbol id="arrow-right" viewBox="0 0 20 9.969">
<path d="M1542.86,739.661h0l-4.54-4.527a0.454,0.454,0,0,0-.64-0.049,0.446,0.446,0,0,0-.05.638,0.18,0.18,0,0,0,.05.049l3.77,3.758h-18a0.453,0.453,0,0,0,0,.9h18l-3.77,3.753a0.447,0.447,0,0,0-.05.639,0.455,0.455,0,0,0,.64.049c0.02-.015.03-0.032,0.05-0.049l4.54-4.527A0.446,0.446,0,0,0,1542.86,739.661Z" transform="translate(-1523 -735)"/>
</symbol>

<symbol id="chevron-down" viewBox="0 0 29.938 15.97">
  <path d="M973.7,1005.3a1.067,1.067,0,0,0-1.5,0l-13.183,13.17L945.8,1005.3a1.06,1.06,0,0,0-1.5,1.5l13.932,13.89a1.024,1.024,0,0,0,.75.31,1.067,1.067,0,0,0,.75-0.31l13.932-13.89A1.039,1.039,0,0,0,973.7,1005.3Z" transform="translate(-944.031 -1005.03)"/>
</symbol>


<symbol id="star" viewBox="0 0 15.969 15.06">
 <path d="M274.292,2557.11l-4.407-.41a0.771,0.771,0,0,1-.631-0.46l-1.579-3.79a0.76,0.76,0,0,0-1.4,0l-1.566,3.79a0.755,0.755,0,0,1-.631.46l-4.407.41a0.751,0.751,0,0,0-.429,1.31l3.321,2.89a0.73,0.73,0,0,1,.24.73l-1,4.05a0.757,0.757,0,0,0,1.124.82l3.674-2.13a0.758,0.758,0,0,1,.77,0l3.675,2.13a0.754,0.754,0,0,0,1.123-.82l-0.984-4.05a0.728,0.728,0,0,1,.239-0.73l3.321-2.89A0.76,0.76,0,0,0,274.292,2557.11Z" transform="translate(-259 -2551.97)"/>
</symbol>


<symbol id="plus" viewBox="0 0 512 512">
<path d="M384,265H264v119h-17V265H128v-17h119V128h17v120h120V265z"/>
</symbol>


<symbol id="facebook" viewBox="0 0 320 512">
<path d="M279.14 288l14.22-92.66h-88.91v-60.13c0-25.35 12.42-50.06 52.24-50.06h40.42V6.26S260.43 0 225.36 0c-73.22 0-121.08 44.38-121.08 124.72v70.62H22.89V288h81.39v224h100.17V288z"></path>
</symbol>


<symbol id="twitter" viewBox="0 0 512 512">
<path d="M459.37 151.716c.325 4.548.325 9.097.325 13.645 0 138.72-105.583 298.558-298.558 298.558-59.452 0-114.68-17.219-161.137-47.106 8.447.974 16.568 1.299 25.34 1.299 49.055 0 94.213-16.568 130.274-44.832-46.132-.975-84.792-31.188-98.112-72.772 6.498.974 12.995 1.624 19.818 1.624 9.421 0 18.843-1.3 27.614-3.573-48.081-9.747-84.143-51.98-84.143-102.985v-1.299c13.969 7.797 30.214 12.67 47.431 13.319-28.264-18.843-46.781-51.005-46.781-87.391 0-19.492 5.197-37.36 14.294-52.954 51.655 63.675 129.3 105.258 216.365 109.807-1.624-7.797-2.599-15.918-2.599-24.04 0-57.828 46.782-104.934 104.934-104.934 30.213 0 57.502 12.67 76.67 33.137 23.715-4.548 46.456-13.32 66.599-25.34-7.798 24.366-24.366 44.833-46.132 57.827 21.117-2.273 41.584-8.122 60.426-16.243-14.292 20.791-32.161 39.308-52.628 54.253z"></path>
</symbol>

<symbol id="youtube" viewBox="0 0 576 512">
<path d="M549.655 124.083c-6.281-23.65-24.787-42.276-48.284-48.597C458.781 64 288 64 288 64S117.22 64 74.629 75.486c-23.497 6.322-42.003 24.947-48.284 48.597-11.412 42.867-11.412 132.305-11.412 132.305s0 89.438 11.412 132.305c6.281 23.65 24.787 41.5 48.284 47.821C117.22 448 288 448 288 448s170.78 0 213.371-11.486c23.497-6.321 42.003-24.171 48.284-47.821 11.412-42.867 11.412-132.305 11.412-132.305s0-89.438-11.412-132.305zm-317.51 213.508V175.185l142.739 81.205-142.739 81.201z"></path>
</symbol>

 <!-- 
   e.g.
   <symbol id="facebook" viewBox="0 0 320 512">
    <path d="M279.14 288l14.22-92.66h-88.91v-60.13c0-25.35 12.42-50.06 52.24-50.06h40.42V6.26S260.43 0 225.36 0c-73.22 0-121.08 44.38-121.08 124.72v70.62H22.89V288h81.39v224h100.17V288z"></path>
  </symbol>

  usage:
   <svg>
      <use xlink:href="images/sprite.svg#facebook"></use>
    </svg>
  -->


</svg>
